<?xml version="1.0" encoding="UTF-8" standalone="no"?>
<svg
   xmlns:dc="http://purl.org/dc/elements/1.1/"
   xmlns:cc="http://creativecommons.org/ns#"
   xmlns:rdf="http://www.w3.org/1999/02/22-rdf-syntax-ns#"
   xmlns:svg="http://www.w3.org/2000/svg"
   xmlns="http://www.w3.org/2000/svg"
   xmlns:sodipodi="http://sodipodi.sourceforge.net/DTD/sodipodi-0.dtd"
   xmlns:inkscape="http://www.inkscape.org/namespaces/inkscape"
   version="1.1"
   id="svg2"
   xml:space="preserve"
   width="219.14"
   height="162.44733"
   viewBox="0 0 219.14 162.44734"
   sodipodi:docname="mpe_xray_telescope_cast_effective_area_cropped.svg"
   inkscape:version="1.0.2 (e86c870879, 2021-01-15)"
   inkscape:export-filename="/home/basti/org/Figs/statusAndProgress/mpe_xray_telescope_cast_effective_area_cropped_no_axes.png"
   inkscape:export-xdpi="400.08044"
   inkscape:export-ydpi="400.08044"><metadata
     id="metadata8"><rdf:RDF><cc:Work
         rdf:about=""><dc:format>image/svg+xml</dc:format><dc:type
           rdf:resource="http://purl.org/dc/dcmitype/StillImage" /><dc:title></dc:title></cc:Work></rdf:RDF></metadata><defs
     id="defs6"><clipPath
       clipPathUnits="userSpaceOnUse"
       id="clipPath22"><path
         d="M 241.319,751.759 H 529.17 V 740.267 H 241.319 Z"
         id="path20" /></clipPath><clipPath
       clipPathUnits="userSpaceOnUse"
       id="clipPath46"><path
         d="m 241.298,740.267 h 287.871 v 11.525 H 241.298 Z"
         id="path44" /></clipPath></defs><sodipodi:namedview
     pagecolor="#ffffff"
     bordercolor="#666666"
     borderopacity="1"
     objecttolerance="10"
     gridtolerance="10"
     guidetolerance="10"
     inkscape:pageopacity="0"
     inkscape:pageshadow="2"
     inkscape:window-width="2560"
     inkscape:window-height="1420"
     id="namedview4"
     showgrid="false"
     inkscape:zoom="5.6568543"
     inkscape:cx="74.514938"
     inkscape:cy="82.988227"
     inkscape:window-x="0"
     inkscape:window-y="20"
     inkscape:window-maximized="0"
     inkscape:current-layer="g10"
     fit-margin-top="0"
     fit-margin-left="0"
     fit-margin-right="0"
     fit-margin-bottom="0" /><g
     id="g10"
     inkscape:groupmode="layer"
     inkscape:label="the_xray_telescope_of_cast_mpe_10.1088"
     transform="matrix(1.3333333,0,0,-1.3333333,-228.70599,969.88264)"><path
       d="m 171.695,669.992 h 0.096 v 2.364 h 0.161 v 1.864 h 0.177 v 1.688 h 0.161 v 1.688 h 0.176 v 1.687 h 0.177 v 1.704 h 0.161 v 1.721 h 0.177 v 1.735 h 0.161 v 1.721 h 0.176 v 1.366 h 0.162 v 1.109 h 0.176 v 1.11 h 0.161 v 1.092 h 0.177 v 1.11 h 0.16 v 1.044 h 0.178 v 0.868 h 0.16 v 0.74 h 0.177 v 0.723 h 0.177 v 0.708 h 0.16 v 0.722 h 0.177 v 0.708 h 0.161 v 0.804 h 0.177 v -1.222 h 0.161 v -1.977 h 0.176 v -1.077 h 0.161 v 0.772 h 0.177 v 0.98 h 0.161 v 0.048 h 0.176 v 0.306 h 0.161 v 0.948 h 0.177 v 0.45 h 0.161 v 0.016 h 0.177 v 0.016 h 0.176 v 0.933 h 0.162 v 0.531 h 0.176 v 0.096 h 0.16 v 0.337 h 0.178 v 0.322 h 0.16 v 0.385 h 0.177 v 0.081 h 0.161 v 0.177 h 0.176 v 1.077 h 0.162 v 0.015 h 0.176 v 0.082 h 0.161 v 0.481 h 0.177 v -0.24 h 0.161 v 0.128 h 0.177 v 0.386 h 0.176 v 0.498 h 0.161 v -0.112 h 0.177 v 0.048 h 0.16 v 0.144 h 0.178 v 0.354 h 0.16 v 0.177 h 0.177 v 0.193 h 0.161 v 0.225 h 0.177 v -0.113 h 0.16 v 0.708 h 0.177 v 0.064 h 0.161 v 0.032 h 0.177 v 0.065 h 0.16 v 0.707 h 0.177 v -0.048 h 0.177 v -0.403 h 0.161 v 1.045 h 0.176 v -0.193 h 0.161 v 0.547 h 0.177 v 0.353 h 0.161 v 0.081 h 0.176 v -0.482 h 0.161 v 0.627 h 0.177 v 0.048 h 0.161 v -0.611 h 0.176 v 0.627 h 0.162 v 0.257 h 0.176 v 0.467 h 0.177 v 0.224 h 0.161 v -0.241 h 0.177 v 0.467 h 0.161 v 0.433 h 0.337 v -0.031 h 0.177 v 0.305 h 0.16 v -0.274 h 0.177 v 0.161 h 0.161 v 0.097 h 0.177 v 0.193 h 0.161 v -0.274 h 0.177 v 0.161 h 0.16 v 0.498 h 0.177 v 0.242 h 0.177 v -0.354 h 0.161 v 0.418 h 0.176 v -0.193 h 0.161 v 0.37 h 0.177 v -0.049 h 0.161 v -0.128 h 0.176 v 0.305 h 0.161 v -0.482 h 0.177 v -0.193 h 0.161 v 0.257 h 0.176 v 0.032 h 0.161 v -0.225 h 0.177 v 0.37 h 0.161 v 0.322 h 0.176 v -0.065 h 0.177 v -0.129 h 0.161 v 0.274 h 0.177 v 0.466 h 0.161 v -0.402 h 0.177 v 0.129 h 0.16 v -0.016 h 0.177 v 0.112 h 0.161 v -0.273 h 0.176 v 0.305 h 0.161 v -0.305 h 0.177 v 0.273 h 0.161 v -0.369 h 0.177 v 0.514 h 0.161 v 0.096 h 0.176 v -0.53 h 0.177 v 0.353 h 0.161 v 0.547 h 0.177 v -0.289 h 0.161 v 0.466 h 0.177 v 0.144 h 0.16 v -0.401 h 0.177 v -0.113 h 0.161 v -0.064 h 0.176 v 0.498 h 0.161 v -0.016 h 0.177 v -0.241 h 0.161 v -0.418 h 0.177 v -0.161 h 0.16 v 1.142 h 0.177 v -0.563 h 0.177 v -0.064 h 0.16 v -0.354 h 0.177 v 0.643 h 0.161 v -0.514 h 0.177 v 0.064 h 0.16 v 0.128 h 0.178 v -0.401 h 0.16 v 0.466 h 0.177 v -0.579 h 0.161 v 0.563 h 0.176 v 0.064 h 0.161 v -0.772 h 0.177 v -0.595 h 0.177 v 0.869 h 0.161 v -0.579 h 0.176 v 0.337 h 0.161 v -1.815 h 0.177 v -0.885 h 0.16 v -1.446 h 0.178 v -0.933 h 0.16 v -0.739 h 0.178 v 0.418 h 0.16 v 0.128 h 0.176 v 0.45 h 0.162 v -0.209 h 0.176 v -0.402 h 0.161 v 0.451 h 0.177 v -0.017 h 0.177 v -0.064 h 0.161 v 0.032 h 0.176 v 0.418 h 0.161 v -0.113 h 0.177 v -0.08 h 0.16 v -0.385 h 0.177 v -0.338 h 0.161 v -0.177 h 0.177 v -0.16 h 0.161 v -0.531 h 0.176 v 0.032 h 0.161 v -0.257 h 0.177 v -0.514 h 0.161 v -0.21 h 0.176 v 0.193 h 0.177 v 0.081 h 0.161 v -0.451 h 0.177 v -0.272 h 0.16 v -0.547 h 0.177 v 0.385 h 0.161 v -0.98 h 0.177 v -0.595 h 0.16 v -0.611 h 0.177 v -0.739 h 0.161 v -0.82 h 0.177 v -1.8 h 0.161 v -3.938 h 0.176 v -4.919 h 0.162 v -4.646 h 0.176 v -5.465 h 0.177 v -6.237 h 0.161 v -4.791 h 0.176 v -2.363 h 0.161 v -1.511 h 0.177 v -1.334 h 0.161 v -0.868 h 0.177 v -0.643 h 0.16 v -1.8 h 0.177 v -0.965 h 0.161 v -0.82 h 0.177 v 0.129 h 0.161 v 0.9 h 0.176 v 0.997 h 0.161 v 0.707 h 0.177 v 0.402 h 0.177 v 1.849 h 0.16 v 0.659 h 0.177 v 0.048 h 0.161 v 0.192 h 0.177 v 0.692 h 0.16 v 0.627 h 0.177 v 0.128 h 0.161 v 0.772 h 0.337 v 0.45 h 0.177 v -0.161 h 0.161 v 0.354 h 0.177 v 0.144 h 0.177 v 0.676 h 0.16 v -0.225 h 0.177 v 0.563 h 0.161 v 0.031 h 0.177 v 0.499 h 0.16 v 0.257 h 0.177 v -0.177 h 0.161 v -0.193 h 0.177 v 0.402 h 0.161 v -0.129 h 0.176 v 0.274 h 0.338 v -0.209 h 0.161 v -0.08 h 0.176 v 0.048 h 0.177 v -0.225 h 0.161 v -0.498 h 0.177 v -0.612 h 0.161 v 0.435 h 0.177 v -1.335 h 0.16 v -0.691 h 0.177 v -0.112 h 0.161 v -0.579 h 0.176 v -0.354 h 0.162 v 0.74 h 0.176 v 0.016 h 0.161 v 0.289 h 0.177 v 0.113 h 0.16 v -0.338"
       style="fill:none;stroke:#ff2200;stroke-width:0.363;stroke-linecap:butt;stroke-linejoin:miter;stroke-miterlimit:2.5;stroke-dasharray:none;stroke-opacity:1"
       id="path136" /><path
       d="m 214.116,663.949 h 0.177 v 1.494 h 0.177 v -0.466 h 0.16 v 1.141 h 0.178 v 0.016 h 0.16 v -0.514 h 0.177 v 0.321 h 0.161 v 0.386 h 0.177 v 0.032 h 0.16 v 0.129 h 0.177 v 0.451 h 0.161 v -0.081 h 0.177 v 0.562 h 0.16 v -0.594 h 0.177 v 1.27 h 0.161 v -0.659 h 0.177 v -0.049 h 0.177 v 0.756 h 0.16 v -0.289 h 0.338 v 0.192 h 0.177 v 0.322 h 0.337 v -0.322 h 0.161 v 0.434 h 0.177 v -0.032 h 0.337 v 0.065 h 0.161 v -0.643 h 0.177 v 0.208 h 0.16 v 0.402 h 0.177 v 0.145 h 0.177 v -0.225 h 0.338 v -0.193 h 0.16 v -0.337 h 0.177 v -0.306 h 0.161 v 0.724 h 0.177 v -0.21 h 0.161 v -0.948 h 0.177 v 0.659 h 0.161 v -0.016 h 0.176 v 0.112 h 0.161 v 0.226 h 0.177 v -0.226 h 0.177 v 0.226 h 0.16 v 0.61 h 0.177 v -0.401 h 0.161 v 0.417 h 0.177 v -0.337 h 0.16 v 0.161 h 0.177 v 0.209 h 0.161 v -0.45 h 0.177 v 0.626 h 0.16 v 0.579 h 0.177 v -0.482 h 0.161 v 0.08 h 0.177 v 0.016 h 0.16 v -0.578 h 0.177 v 1.27 h 0.177 v -0.901 h 0.161 v -0.015 h 0.177 v -0.065 h 0.16 v 0.096 h 0.177 v -0.209 h 0.161 v 0.29 h 0.176 v -0.161 h 0.161 v 0.049 h 0.177 v -0.162 h 0.161 v 0.885 h 0.177 v 0.225 h 0.16 v -0.852 h 0.177 v 0.418 h 0.161 v 0.16 h 0.176 v 0.129 h 0.178 v 0.354 h 0.16 v 0.016 h 0.178 v -0.145 h 0.16 v -0.289 h 0.176 v 0.579 h 0.162 v 0.063 h 0.176 v -0.642 h 0.161 v 0.257 h 0.177 v 0.547 h 0.161 v -0.322 h 0.177 v 0.402 h 0.16 v -0.321 h 0.177 v -0.226 h 0.161 v 0.836 h 0.176 v -0.594 h 0.178 v 0.37 h 0.16 v 0.128 h 0.177 v 0.353 h 0.161 v -0.016 h 0.177 v -0.434 h 0.16 v 0.209 h 0.177 v 0.322 h 0.161 v -0.402 h 0.177 v 0.37 h 0.16 V 670.7 h 0.177 v 0.273 h 0.161 v 0.321 h 0.177 v -0.369 h 0.16 V 670.7 h 0.177 v 0.82 h 0.177 v -0.74 h 0.16 v -0.048 h 0.177 v 0.305 h 0.161 v -0.016 h 0.177 v 0.032 h 0.161 v 0.338 h 0.176 v -0.097 h 0.162 v -0.145 h 0.176 v 0.483 h 0.161 v -0.209 h 0.177 v -0.241 h 0.16 v 0.305 h 0.178 v -0.016 h 0.176 v -0.225 h 0.161 v 0.048 h 0.177 v 0.386 h 0.16 v -0.16 h 0.177 v 0.031 h 0.161 v 0.049 h 0.177 v -0.611 h 0.161 v 0.289 h 0.177 v 0.595 h 0.16 v -0.322 h 0.177 v -0.128 h 0.161 v 0.225 h 0.177 v 0.032 h 0.16 v -0.514 h 0.177 v 0.257 h 0.177 v 0.305 h 0.161 v 0.049 h 0.176 v 0.208 h 0.161 v -0.112 h 0.177 v -0.37 h 0.161 v 0.531 h 0.176 v -0.033 h 0.161 v -0.031 h 0.177 v 0.096 h 0.161 v -0.145 h 0.176 v -0.064 h 0.161 v -0.337 h 0.177 v 0.321 h 0.161 v -0.386 h 0.177 v -0.113 h 0.177 v -0.096 h 0.16 v 0.145 h 0.177 v -0.37 h 0.161 v 0.209 h 0.176 v 0.112 h 0.161 v 0.579 h 0.177 v -0.177 h 0.161 v -0.16 h 0.177 v -0.081 h 0.161 v -0.289 h 0.177 v 0.225 h 0.16 v 0.434 h 0.177 v -0.418 h 0.161 v -0.112 h 0.177 v 0.322 h 0.177 v -0.354 h 0.16 v 0.128 h 0.177 v -0.016 h 0.161 v -0.177 h 0.176 v 0.209 h 0.161 v -0.353 h 0.177 v 0.466 h 0.161 v -0.756 h 0.176 v 0.739 h 0.161 v -0.16 h 0.177 v -0.209 h 0.161 v -0.193 h 0.176 v 0.064 h 0.161 v 0.547 h 0.177 v -0.354 h 0.177 v -0.161 h 0.16 v -0.16 h 0.178 v 0.771 h 0.16 v -0.305 h 0.177 v 0.032 h 0.337 v -0.081 h 0.161 v -0.369 h 0.177 v -0.482 h 0.161 v 0.449 h 0.177 v 0.402 h 0.16 v -0.594 h 0.178 v 0.225 h 0.176 v 0.289 h 0.16 v -0.289 h 0.178 v -0.113 h 0.16 v -0.032 h 0.177 v 0.081 h 0.161 v -0.289 h 0.176 v 0.176 h 0.162 v 0.226 h 0.176 v -0.387 h 0.161 v 0.049 h 0.177 v -0.033 h 0.16 v 0.242 h 0.178 v -0.466 h 0.16 v -0.386 h 0.177 v 0.643 h 0.177 v -0.129 h 0.16 v 0.161 h 0.177 v -0.274 h 0.161 v -0.401 h 0.177 v 0.466 h 0.161 v -0.45 h 0.176 v -0.66 h 0.161 v 1.399 h 0.177 v -0.53 h 0.161 v -0.531 h 0.176 v 0.74 h 0.161 v -0.386 h 0.177 v -0.064 h 0.161 v -0.29 h 0.176 v 0.37 h 0.177 v -0.177 h 0.161 v 0.29 h 0.177 v -0.515 h 0.16 v 0.016 h 0.177 v 0.129 h 0.161 v -0.289 h 0.177 v -0.258 h 0.161 v -0.08 h 0.176 v 0.305 h 0.162 v 0.193 h 0.176 v -0.225 h 0.161 v 0.016 h 0.177 v 0.402 h 0.16 v -0.675 h 0.177 v -0.016 h 0.177 v 0.273 h 0.161 v -0.45 h 0.176 v 0.225 h 0.161 v 0.177 h 0.177 v -0.257 h 0.161 v -0.145 h 0.338 v -0.434 h 0.176 v 0.177 h 0.161 v 0.129 h 0.177 v -0.209 h 0.161 v -0.081 h 0.176 v -0.611 h 0.161 v 0.321 h 0.177 v -0.257 h 0.177 v 0.081 h 0.16 v -0.274"
       style="fill:none;stroke:#ff2200;stroke-width:0.363;stroke-linecap:butt;stroke-linejoin:miter;stroke-miterlimit:2.5;stroke-dasharray:none;stroke-opacity:1"
       id="path138" /><path
       d="m 256.795,667.886 h 0.176 v 0.226 h 0.161 v 0.096 h 0.177 v 0.177 h 0.161 v -0.306 h 0.337 v 0.129 h 0.177 v 0.032 h 0.161 v -0.723 h 0.176 v 0.466 h 0.162 v 0.209 h 0.176 v -0.563 h 0.178 v 0.595 h 0.16 v -0.402 h 0.176 v -0.209 h 0.162 v 0.177 h 0.176 v -0.321 h 0.161 v 0.386 h 0.177 v -0.676 h 0.16 v 0.322 h 0.178 v 0.37 h 0.16 v -0.66 h 0.176 v 0.435 h 0.162 v -0.386 h 0.176 v 0.032 h 0.161 v -0.177 h 0.177 v -0.402 h 0.177 v 0.354 h 0.161 v 0.386 h 0.177 v -0.756 h 0.337 v 0.096 h 0.161 v 0.081 h 0.177 v -0.321 h 0.16 v -0.177 h 0.177 v -0.386 h 0.161 v 0.578 h 0.177 v -0.096 h 0.16 v -0.113 h 0.177 v -0.016 h 0.161 v -0.305 h 0.176 v -0.37 h 0.177 v 0.579 h 0.161 v -0.29 h 0.177 v 0.21 h 0.161 v -0.129 h 0.176 v 0.064 h 0.161 v -0.547 h 0.177 v -0.449 h 0.161 v 0.048 h 0.177 v 0.08 h 0.16 v 0.289 h 0.177 v -0.578 h 0.161 v 0.161 h 0.177 v 0.659 h 0.161 v -0.242 h 0.176 v -0.144 h 0.177 v -0.097 h 0.161 v -0.385 h 0.177 v -0.209 h 0.161 v -0.274 h 0.176 v 0.177 h 0.161 v -0.129 h 0.177 v -0.321 h 0.161 v 0.257 h 0.177 v -0.08 h 0.16 v 0.145 h 0.177 v -0.161 h 0.161 v 0.354 h 0.176 v -0.949 h 0.177 v 0.499 h 0.161 v -0.451 h 0.177 v 0.563 h 0.161 v -0.499 h 0.176 v -0.417 h 0.161 v 0.032 h 0.177 v 0.032 h 0.161 v -0.305 h 0.176 v -0.322 h 0.161 v 0.225 h 0.177 v -0.016 h 0.161 v -0.707 h 0.176 v 0.578 h 0.161 v -0.016 h 0.177 v -0.418 h 0.177 v 0.161 h 0.161 v -0.257 h 0.176 v 0.241 h 0.161 v 0.129 h 0.177 v -1.045 h 0.16 v 0.241 h 0.178 v 0.643 h 0.16 v -0.611 h 0.177 v -0.402 h 0.161 v 0.258 h 0.177 v -0.37 h 0.161 v 0.241 h 0.176 v -0.466 h 0.161 v -0.161 h 0.177 v -0.321 h 0.176 v 0.144 h 0.162 v 0.29 h 0.176 v -0.29 h 0.161 v 0.112 h 0.177 v -0.337 h 0.16 v -0.08 h 0.177 v -0.017 h 0.161 v -0.546 h 0.177 v 0.097 h 0.161 v -0.242 h 0.176 v 0.322 h 0.161 v -0.37 h 0.177 v 0.145 h 0.161 v -0.434 h 0.176 v -0.386 h 0.177 v 0.049 h 0.161 v 0.193 h 0.177 v -0.306 h 0.161 v -0.418 h 0.176 v 0.466 h 0.161 v -0.064 h 0.177 v -0.145 h 0.16 v -0.338 h 0.177 v 0.081 h 0.161 v -0.274 h 0.177 v -0.385 h 0.161 v -0.193 h 0.176 v 0.322 h 0.162 v -0.644 h 0.176 v 0.225 h 0.177 v -0.578 h 0.161 v 0.016 h 0.176 v 0.434 h 0.162 v -0.354 h 0.176 v -0.546 h 0.16 v 0.144 h 0.178 v -0.449 h 0.16 v 0.16 h 0.177 v -0.096 h 0.161 v 0.112 h 0.177 v -0.225 h 0.161 v -0.129 h 0.176 v -0.225 h 0.177 v -0.289 h 0.161 v 0.08 h 0.176 v -0.305 h 0.162 v 0.161 h 0.176 v -0.209 h 0.161 v -0.386 h 0.337 v -0.45 h 0.177 v 0.016 h 0.161 v -0.097 h 0.177 v -0.064 h 0.161 v 0.033 h 0.176 v -0.065 h 0.161 v -0.402 h 0.177 v -0.016 h 0.177 v -0.338 h 0.337 v -0.16 h 0.161 v 0.048 h 0.177 v 0.209 h 0.161 v -0.321 h 0.176 v -0.049 h 0.161 v -0.337 h 0.177 v -0.451 h 0.16 v 0.563 h 0.177 v -0.418 h 0.161 v 0.161 h 0.177 v -0.418 h 0.161 v -0.096 h 0.177 v -0.097 h 0.176 v -0.177 h 0.161 v -0.578 h 0.177 v -0.16 h 0.161 v 0.4 h 0.177 v -0.562 h 0.161 v -0.144 h 0.176 v -0.322 h 0.161 v 0.176 h 0.177 v 0.242 h 0.161 v -0.546 h 0.176 v -0.097 h 0.161 v 0.064 h 0.177 v -0.787 h 0.161 v -0.161 h 0.176 v 0.369 h 0.177 v -0.385 h 0.161 v -0.209 h 0.177 v -0.242 h 0.16 v -0.658 h 0.177 v 0.707 h 0.161 v 0.257 h 0.177 v -0.498 h 0.16 v -0.129 h 0.177 v 0.146 h 0.161 v -0.901 h 0.177 v -0.112 h 0.16 v 0.61 h 0.177 v -0.578 h 0.161 v 0.064 H 291 v -0.226 h 0.177 v -0.143 h 0.161 v -0.194 h 0.176 v -0.627 h 0.161 v 0.145 h 0.177 v 0.016 h 0.16 v 0.113 h 0.178 v -0.177 h 0.16 v -0.258 h 0.177 v -0.208 h 0.161 v -0.017 h 0.176 v -0.225 h 0.162 v -0.192 h 0.176 v -0.627 h 0.177 v 0.385 h 0.161 v -0.161 h 0.176 v -0.273 h 0.162 v 0.177 h 0.176 v -0.514 h 0.161 v 0.16 h 0.177 v -0.385 h 0.16 v 0.225 h 0.177 v -0.208 h 0.161 v -0.21 h 0.177 v -0.226 h 0.161 v -0.143 h 0.176 v -0.274 h 0.161 v 0.159 h 0.177 v -0.61 h 0.177 v -0.386 h 0.16 v 0.498 h 0.177 v -0.546 h 0.161 v 0.242 h 0.177 v -0.692 h 0.16 v 0.097 h 0.177 v -0.209 h 0.161 v 0.112 h 0.177 v -0.385 h 0.16 v 0.128 h 0.178 v -0.097 h 0.16 v -0.144 h 0.177 v -0.354 h 0.161 v -0.193 h 0.176 v -0.032 h 0.177 v -0.032 h 0.161 v -0.209 h 0.177 v -0.257 h 0.161 v -0.144 h 0.176 v 0.063 h 0.161 v -0.048 h 0.08"
       style="fill:none;stroke:#ff2200;stroke-width:0.363;stroke-linecap:butt;stroke-linejoin:miter;stroke-miterlimit:2.5;stroke-dasharray:none;stroke-opacity:1"
       id="path140" /><path
       d="m 299.377,640.993 h 0.096 v -0.386 h 0.161 v 0.082 h 0.177 v -0.048 h 0.161 v 0.063 h 0.177 v -0.418 h 0.16 v -0.417 h 0.177 v -0.451 h 0.161 v 0.338 h 0.176 v -0.192 H 301 v -0.307 h 0.161 v 0.098 h 0.177 v -0.467 h 0.161 v 0.257 h 0.176 v -0.209 h 0.161 v 0.256 h 0.177 v -0.336 h 0.161 v 0.015 h 0.176 v -0.578 h 0.161 v -0.08 h 0.177 v -0.29 h 0.161 v 0.177 h 0.177 v -0.145 h 0.16 v -0.032 h 0.177 v -0.16 h 0.177 v -0.355 h 0.16 v -0.289 h 0.178 v 0.13 h 0.16 v -0.098 h 0.177 v -0.273 h 0.161 v -0.466 h 0.176 v -0.24 h 0.162 v 0.272 h 0.176 v -0.321 h 0.161 v 0.016 h 0.177 v -0.482 h 0.16 v 0.113 h 0.178 v 0.095 h 0.176 v -0.257 h 0.16 v -0.063 h 0.178 v -0.338 h 0.16 v -0.178 h 0.338 v 0.049 h 0.177 v -0.417 h 0.161 v 0.047 h 0.176 v -0.225 h 0.161 v 0.194 h 0.177 v -0.563 h 0.16 v 0.274 h 0.177 v -0.098 h 0.161 v -0.241 h 0.177 v -0.112 h 0.177 v -0.096 h 0.16 v -0.194 h 0.177 v -0.224 h 0.161 v -0.178 h 0.177 v 0.161 h 0.16 v -0.257 h 0.177 v -0.241 h 0.161 v -0.144 h 0.177 v -0.178 h 0.16 v -0.145 h 0.177 v 0.209 h 0.161 v -0.304 h 0.177 v -0.354 h 0.16 v -0.161 h 0.177 v 0.161 h 0.177 v -0.273 h 0.161 v -0.338 h 0.177 v -0.097 h 0.16 v 0.032 h 0.177 v 0.354 h 0.161 v -0.417 h 0.177 v -0.049 h 0.16 v -0.193 h 0.177 v -0.24 h 0.161 v -0.274 h 0.177 v -0.064 h 0.161 v 0.128 h 0.176 v -0.112 h 0.161 v 0.08 h 0.177 v -0.353 h 0.176 v -0.498 h 0.162 v -0.21 h 0.176 v 0.129 h 0.161 v 0.016 h 0.177 v -0.482 h 0.16 v -0.081 h 0.177 v 0.273 h 0.161 v -0.402 h 0.177 v 0.563 h 0.161 v -0.53 h 0.176 v -0.419 h 0.161 v 0.193 h 0.177 v 0.178 h 0.161 v -0.74 h 0.177 v 0.177 h 0.177 v -0.065 h 0.16 v 0.049 h 0.177 v -0.178 h 0.16 v -0.45 h 0.177 v -0.111 h 0.161 v 0.048 h 0.177 v 0.257 h 0.161 v -0.562 h 0.177 v 0.144 h 0.16 v -0.209 h 0.177 v 0.096 h 0.161 v -0.465 h 0.176 v -0.017 h 0.177 v 0.032 h 0.161 v -0.241 h 0.177 v -0.241 h 0.161 v 0.144 h 0.176 v -0.144 h 0.161 v -0.129 h 0.177 v -0.128 h 0.161 v -0.209 h 0.176 v -0.097 h 0.161 v -0.048 h 0.177 v 0.064 h 0.161 v -0.449 h 0.176 v 0.032 h 0.161 v -0.049 h 0.177 v -0.176 h 0.177 v -0.145 h 0.16 v 0.24 h 0.177 v 0.193 h 0.161 v -0.561 h 0.177 v -0.017 h 0.161 v -0.161 h 0.176 v -0.209 h 0.161 v -0.257 h 0.177 v -0.049 h 0.16 v -0.143 h 0.177 v -0.178 h 0.161 v 0.129 h 0.177 v -0.017 h 0.338 v -0.369 h 0.337 v -0.144 h 0.177 v -0.146 h 0.161 v -0.063 h 0.177 v -0.016 h 0.16 v -0.241 h 0.177 v -0.371 h 0.161 v 0.387 h 0.176 v -0.162 h 0.162 v -0.289 h 0.176 v -0.047 h 0.161 v -0.274 h 0.177 v -0.064 h 0.16 v -0.129 h 0.177 v 0.209 h 0.177 v -0.37 h 0.16 v 0.177 h 0.178 v -0.369 h 0.16 v -0.033 h 0.177 v -0.145 h 0.161 v -0.095 h 0.177 v -0.21 h 0.16 v 0.016 h 0.177 v 0.033 h 0.161 v -0.322 h 0.177 v -0.113 h 0.16 v 0.049 h 0.177 v -0.161 h 0.161 v -0.161 h 0.177 v -0.016 h 0.177 v -0.128 h 0.16 v 0.192 h 0.177 v -0.29 h 0.161 v -0.128 h 0.177 v -0.177 h 0.16 v -0.047 h 0.177 v -0.065 h 0.161 v 0.065 h 0.177 v -0.321 h 0.16 v -0.081 h 0.177 v -0.033 h 0.161 v -0.064 h 0.176 v -0.128 h 0.177 v 0.112 h 0.161 v -0.257 h 0.177 v -0.129 h 0.161 v -0.032 h 0.337 v -0.273 h 0.177 v -0.017 h 0.161 v -0.16 h 0.177 v 0.017 h 0.16 v -0.13 h 0.177 v 0.13 h 0.161 v -0.37 h 0.176 v 0.224 h 0.162 v -0.273 h 0.176 v -0.225 h 0.338 v -0.16 h 0.176 v 0.016 h 0.162 v -0.242 h 0.337 v -0.015 h 0.177 v -0.081 h 0.16 v 0.081 h 0.177 v -0.579 h 0.161 v 0.16 h 0.177 v -0.064 h 0.161 v 0.096 h 0.176 v -0.129 h 0.161 v -0.16 h 0.177 v -0.177 h 0.177 v -0.015 h 0.161 v 0.047 h 0.079"
       style="fill:none;stroke:#ff2200;stroke-width:0.363;stroke-linecap:butt;stroke-linejoin:miter;stroke-miterlimit:2.5;stroke-dasharray:none;stroke-opacity:1"
       id="path142" /></g><g
     inkscape:groupmode="layer"
     id="layer1"
     inkscape:label="blanking"
     style="display:none"
     transform="translate(-28.205684,-1.4607776)"><rect
       style="fill:#0000ff;fill-rule:evenodd;stroke-width:1.1242"
       id="rect567"
       width="218.55821"
       height="6.6784701"
       x="28.656136"
       y="0.11483435" /><rect
       style="fill:#0000ff;fill-rule:evenodd;stroke-width:0.988806"
       id="rect569"
       width="218.56509"
       height="6.637363"
       x="28.64925"
       y="156.83176" /></g></svg>
